<svg xmlns="http://www.w3.org/2000/svg" viewBox="0 0 280 72" role="img" aria-label="Mir&#8217;ah">
  <defs>
    <linearGradient id="01enlightL" x1="8" y1="8" x2="32" y2="56" gradientUnits="userSpaceOnUse">
      <stop offset="0%" stop-color="#4AE0C0"/>
      <stop offset="100%" stop-color="#2B9FFF"/>
    </linearGradient>
    <linearGradient id="01enlightR" x1="32" y1="8" x2="56" y2="56" gradientUnits="userSpaceOnUse">
      <stop offset="0%" stop-color="#38D6B0"/>
      <stop offset="100%" stop-color="#1A6FD4"/>
    </linearGradient>
    <linearGradient id="01enlightG" x1="10" y1="10" x2="54" y2="54" gradientUnits="userSpaceOnUse">
      <stop offset="0%" stop-color="#4AE0C0"/>
      <stop offset="50%" stop-color="#2B9FFF"/>
      <stop offset="100%" stop-color="#1A6FD4"/>
    </linearGradient>
    <clipPath id="01enlightCL"><rect width="31.2" height="64"/></clipPath>
    <clipPath id="01enlightCR"><rect x="32.8" width="31.2" height="64"/></clipPath>
  </defs>
  <g transform="translate(4 4)"><path fill="url(#01enlightL)" clip-path="url(#01enlightCL)" d="M12 51.5V12.5h10.5C26.5 18.5 29.5 27 32 36C34.5 27 37.5 18.5 41.5 12.5H52V51.5H42.5V29C38.5 36.5 35 43 32 48C29 43 25.5 36.5 21.5 29V51.5H12Z"/><path fill="url(#01enlightR)" clip-path="url(#01enlightCR)" d="M12 51.5V12.5h10.5C26.5 18.5 29.5 27 32 36C34.5 27 37.5 18.5 41.5 12.5H52V51.5H42.5V29C38.5 36.5 35 43 32 48C29 43 25.5 36.5 21.5 29V51.5H12Z"/></g>
  <text x="78" y="45" fill="#07111F" font-family="system-ui, -apple-system, 'Segoe UI', Roboto, 'Helvetica Neue', Arial, sans-serif" font-size="30" font-weight="700" letter-spacing="-0.02em">Mir&#8217;ah</text>
</svg>
