<svg xmlns="http://www.w3.org/2000/svg" viewBox="0 0 280 72" role="img" aria-label="Mir&#8217;ah">
  <defs>
    <linearGradient id="03enlightL" x1="8" y1="8" x2="32" y2="56" gradientUnits="userSpaceOnUse">
      <stop offset="0%" stop-color="#4AE0C0"/>
      <stop offset="100%" stop-color="#2B9FFF"/>
    </linearGradient>
    <linearGradient id="03enlightR" x1="32" y1="8" x2="56" y2="56" gradientUnits="userSpaceOnUse">
      <stop offset="0%" stop-color="#38D6B0"/>
      <stop offset="100%" stop-color="#1A6FD4"/>
    </linearGradient>
    <linearGradient id="03enlightG" x1="10" y1="10" x2="54" y2="54" gradientUnits="userSpaceOnUse">
      <stop offset="0%" stop-color="#4AE0C0"/>
      <stop offset="50%" stop-color="#2B9FFF"/>
      <stop offset="100%" stop-color="#1A6FD4"/>
    </linearGradient>
    <clipPath id="03enlightCL"><rect width="31.2" height="64"/></clipPath>
    <clipPath id="03enlightCR"><rect x="32.8" width="31.2" height="64"/></clipPath>
  </defs>
  <g transform="translate(4 4)"><rect x="18" y="8" width="28" height="48" rx="10" fill="url(#03enlightG)"/><path fill="#E8FFF8" opacity=".75" d="M26 12h8c1.1 0 2 .9 2 2v36c0 1.1-.9 2-2 2h-8c-1.1 0-2-.9-2-2V14c0-1.1.9-2 2-2z"/><ellipse cx="32" cy="32" rx="4" ry="7" fill="#07111F" opacity=".22"/></g>
  <text x="78" y="45" fill="#07111F" font-family="system-ui, -apple-system, 'Segoe UI', Roboto, 'Helvetica Neue', Arial, sans-serif" font-size="30" font-weight="700" letter-spacing="-0.02em">Mir&#8217;ah</text>
</svg>
